<svg xmlns="http://www.w3.org/2000/svg" width="237.333" height="32.799" viewBox="0 0 237.333 32.799"><defs><style>.a{fill:#fff;}</style></defs><g transform="translate(0)"><path class="a" d="M63.1,30.5a7.522,7.522,0,0,1-7.618-7.938,7.623,7.623,0,1,1,15.233,0A7.522,7.522,0,0,1,63.1,30.5Zm0-13.879c-3.207,0-5.361,2.39-5.361,5.948a5.391,5.391,0,1,0,10.725,0A5.436,5.436,0,0,0,63.1,16.627ZM26.547,30.5a7.521,7.521,0,0,1-7.613-7.938,7.62,7.62,0,1,1,15.228,0A7.522,7.522,0,0,1,26.545,30.5Zm0-13.879c-3.209,0-5.363,2.39-5.363,5.948a5.391,5.391,0,1,0,10.725,0,5.436,5.436,0,0,0-5.363-5.946ZM167.213,30.234h-2.186V14.891h2.158l.049.066L175.6,26.31V14.891h2.186V30.232h-2.039l-.046-.064-8.479-11.6V30.23Zm-39.162,0h-2.186V14.891h2.942l.04.1,4.515,10.962,4.591-11.059H140.9V30.232h-2.184V18.5l-4.854,11.733h-.975l-.041-.089-4.79-11.632V30.242Zm-125.433,0H.433V14.891H2.586l.046.066L11,26.31V14.891h2.178V30.232H11.145l-.049-.064-8.476-11.6v11.66Zm187.866,0H188.3V16.874h-4.75V14.891h11.714v1.977h-4.777V30.225Zm-74.872,0h-2.184V23.772l-6.063-8.881h2.571l4.572,6.852,4.581-6.852h2.566l-6.042,8.881V30.23Zm42.7,0H148.149V14.891h10.163v1.977h-7.977V21.4h7.819v1.977h-7.819v4.867h7.979v1.977Zm-64.963,0H90.868l6.164-15.343h2.533l6.182,15.338h-2.471L101.943,26.9H94.678L93.35,30.229Zm4.96-12.818-2.965,7.5h5.912ZM46.094,30.234h-2.53l-.038-.1L37.4,14.891h2.481l.04.1,4.92,12.6,4.963-12.7h2.482L46.1,30.232Zm33.038,0H76.951V14.892h6.2a4.572,4.572,0,0,1,4.866,4.688,4.571,4.571,0,0,1-4.866,4.686H79.138v5.968Zm0-13.36h0v5.409H82.92a2.708,2.708,0,1,0,0-5.409Zm-20.26-6.368h0a2.283,2.283,0,0,1-.372-.023,2.665,2.665,0,0,1-.348-.061l.2-1.145a1.051,1.051,0,0,0,.494.1,1.031,1.031,0,0,0,.517-.115.824.824,0,0,0,.329-.4l.292-.67L57.559,2.24h1.364l1.715,4.406L62.356,2.24h1.375L60.895,9.177a2.021,2.021,0,0,1-.792,1.016,2.4,2.4,0,0,1-1.229.311ZM54.5,8.264a2.306,2.306,0,0,1-1.054-.25,2.375,2.375,0,0,1-.833-.7v.8H51.338V0h1.278V3.056A2.306,2.306,0,0,1,54.5,2.094a2.458,2.458,0,0,1,1.344.379,2.563,2.563,0,0,1,.926,1.076A3.788,3.788,0,0,1,57.1,5.187a3.772,3.772,0,0,1-.329,1.647A2.518,2.518,0,0,1,55.848,7.9a2.4,2.4,0,0,1-1.344.366Zm-.377-5.039a1.7,1.7,0,0,0-.865.231,1.713,1.713,0,0,0-.646.572V6.353a1.5,1.5,0,0,0,.639.553,1.86,1.86,0,0,0,.87.226,1.51,1.51,0,0,0,1.219-.544A2.121,2.121,0,0,0,55.8,5.184a2.141,2.141,0,0,0-.456-1.413,1.5,1.5,0,0,0-1.217-.545ZM43.392,8.264a2.451,2.451,0,0,1-1.352-.372,2.494,2.494,0,0,1-.931-1.064,3.772,3.772,0,0,1-.329-1.647,3.788,3.788,0,0,1,.329-1.639,2.555,2.555,0,0,1,.931-1.076,2.492,2.492,0,0,1,1.352-.379,2.385,2.385,0,0,1,1.041.249,2.487,2.487,0,0,1,.845.713V0h1.278V8.117H45.278v-.8a2.436,2.436,0,0,1-.833.7A2.306,2.306,0,0,1,43.392,8.264Zm.364-5.039a1.482,1.482,0,0,0-1.206.547A2.163,2.163,0,0,0,42.1,5.186a2.141,2.141,0,0,0,.453,1.4,1.5,1.5,0,0,0,1.206.542,1.889,1.889,0,0,0,.88-.212,1.613,1.613,0,0,0,.646-.558V4.016a1.685,1.685,0,0,0-.646-.557,1.843,1.843,0,0,0-.881-.234ZM37.074,8.264A3.223,3.223,0,0,1,35.5,7.88a2.79,2.79,0,0,1-1.1-1.089,3.22,3.22,0,0,1-.4-1.619,3.2,3.2,0,0,1,.382-1.55,2.91,2.91,0,0,1,2.6-1.529,2.729,2.729,0,0,1,2.538,1.552,3.647,3.647,0,0,1,.359,1.647V5.6h-4.54A1.772,1.772,0,0,0,35.9,6.754a1.845,1.845,0,0,0,1.3.463,2.654,2.654,0,0,0,.908-.165,2.122,2.122,0,0,0,.759-.479l.585.84a2.965,2.965,0,0,1-1.059.633A4.057,4.057,0,0,1,37.074,8.264Zm-.1-5.124a1.52,1.52,0,0,0-1.179.468,1.8,1.8,0,0,0-.476,1.09h3.311a1.812,1.812,0,0,0-.194-.736,1.5,1.5,0,0,0-.553-.59A1.647,1.647,0,0,0,36.977,3.14ZM26.068,8.264a3.232,3.232,0,0,1-1.576-.384,2.79,2.79,0,0,1-1.1-1.089,3.22,3.22,0,0,1-.4-1.619,3.172,3.172,0,0,1,.385-1.548,2.945,2.945,0,0,1,1.064-1.115A2.91,2.91,0,0,1,25.97,2.1a2.818,2.818,0,0,1,1.522.413,2.772,2.772,0,0,1,1.016,1.138,3.6,3.6,0,0,1,.359,1.647V5.6h-4.54A1.771,1.771,0,0,0,24.9,6.754a1.845,1.845,0,0,0,1.3.463,2.713,2.713,0,0,0,.908-.165,2.113,2.113,0,0,0,.761-.476l.585.84a2.965,2.965,0,0,1-1.059.633A4.1,4.1,0,0,1,26.068,8.264Zm-.1-5.124a1.525,1.525,0,0,0-1.179.468,1.8,1.8,0,0,0-.474,1.09h3.309a1.637,1.637,0,0,0-.193-.736,1.482,1.482,0,0,0-.548-.59,1.621,1.621,0,0,0-.914-.232ZM9.855,8.264a3.039,3.039,0,0,1-1.589-.413,2.836,2.836,0,0,1-1.059-1.12,3.294,3.294,0,0,1-.371-1.558,3.261,3.261,0,0,1,.372-1.548A2.831,2.831,0,0,1,8.267,2.5a3.039,3.039,0,0,1,1.589-.413,3.06,3.06,0,0,1,1.6.413,2.843,2.843,0,0,1,1.062,1.12,3.248,3.248,0,0,1,.372,1.55,3.294,3.294,0,0,1-.372,1.558,2.836,2.836,0,0,1-1.059,1.12,3.06,3.06,0,0,1-1.6.412Zm0-5.039a1.51,1.51,0,0,0-1.237.565,2.141,2.141,0,0,0-.456,1.382,2.158,2.158,0,0,0,.456,1.393,1.51,1.51,0,0,0,1.237.567A1.522,1.522,0,0,0,11.1,6.566a2.158,2.158,0,0,0,.456-1.393A2.141,2.141,0,0,0,11.1,3.789a1.522,1.522,0,0,0-1.247-.563Zm6.719,4.894H15.234L13.409,2.24h1.328l1.24,4.271,1.4-4.271H18.5l1.4,4.271,1.24-4.271h1.328L20.64,8.117H19.3L17.937,3.81,16.574,8.117Zm14.839,0h-1.27V2.24h1.278v.865a2.733,2.733,0,0,1,.853-.72,2.245,2.245,0,0,1,1.059-.28V3.372a1.723,1.723,0,0,0-.4-.036,1.879,1.879,0,0,0-.858.237,1.647,1.647,0,0,0-.659.54v4Zm-29.988,0H0V0H3.566A2.836,2.836,0,0,1,4.989.341a2.331,2.331,0,0,1,.913.926,2.658,2.658,0,0,1,.316,1.278A2.658,2.658,0,0,1,5.9,3.823a2.318,2.318,0,0,1-.919.926,2.848,2.848,0,0,1-1.417.341H1.425V8.116Zm0-6.864V3.833H3.372a1.433,1.433,0,0,0,1-.352,1.206,1.206,0,0,0,.39-.937,1.2,1.2,0,0,0-.392-.936,1.433,1.433,0,0,0-1-.354Z" transform="translate(42.068 2.288)"/><path class="a" d="M32.355,32.8H.613A.637.637,0,0,1,0,32.141V24.213H32.968v7.926a.637.637,0,0,1-.613.66Zm.609-10.573H0V14.953H32.964v7.272Zm0-9.257H0V6.959H32.964v6.01Zm0-8H0V.659A.639.639,0,0,1,.613,0H32.355a.639.639,0,0,1,.613.659V4.973Z" transform="translate(0)"/></g></svg>